<svg xmlns="http://www.w3.org/2000/svg" width="192" height="192" viewBox="0 0 192 192" fill="none">
  <rect width="192" height="192" rx="30" fill="#4CAF50" />
  <path d="M144 64H48C48 64 48 112 96 112C144 112 144 64 144 64Z" fill="#8BC34A" />
  <path d="M112 112H80V144H112V112Z" fill="#795548" />
  <path d="M124 144H68C60.268 144 54 150.268 54 158C54 163.732 58.268 168 64 168H128C133.732 168 138 163.732 138 158C138 150.268 131.732 144 124 144Z" fill="#DDDDDD" />
  <path d="M96 32C104.837 32 112 39.163 112 48C112 56.837 104.837 64 96 64C87.163 64 80 56.837 80 48C80 39.163 87.163 32 96 32Z" fill="#FFFFFF" />
</svg> 